<svg xmlns="http://www.w3.org/2000/svg" viewBox="0 0 531.65 484.3">
  <defs>
    <style>
      .flor-1 {
        fill: #62d3cc;
      }
    </style>
  </defs>
  <g id="flor-1" data-name="flor-1">
    <path class="flor-1" d="M552.8,284.35c-12.63-4.77-28.17-20.55-42.87-17.61,9-12.12,15.5-26.16,25-40.29a1.43,1.43,0,0,0-.89-2.09c-14.3-2.19-23.3-8.21-35.58-9.44a26.8,26.8,0,0,0,1-6.27c.51-6.79,1.05-14.49,6.28-19.48,2-1.94-.23-4.72-2.59-4.28-8,1.45-16.28,0-23.66,3.13,2.67-12.62,4-25.6,9.39-37.48.41-.92-.11-2.37-1.34-2.24a34.08,34.08,0,0,1-10.64-.58c5.93-7.47,3.71-28.26,5.17-33.35a2,2,0,0,0-2.4-2.34c-9.66,1.93-19.42,2.07-29.13,3.86-3.19-9.22-7.27-18.42-8.29-28.58a2.09,2.09,0,0,0-3.12-1.71c-11.87,5.45-22.41,7.64-35,9.8-5.31.91-8.14,1.48-11.26,4.54-9.94-9.18-21.85-19-24.17-30.19a1.61,1.61,0,0,0-2.93-.34,17.37,17.37,0,0,1-9,8,.58.58,0,0,0,.09-.29c-2.51-30-54.3-17.86-61.26-49.1-.66-3-4.66-3-6.1-.71-10.16,16.08-30.33,20.29-44.54,32-7.86,6.48-10.21,15.05-11.8,24.15q-1.05-3.47-2.34-7c-2.24-6-7.54-12.7-14.29-13.79-16.39-2.65-33,5.32-45-9.75a.93.93,0,0,0-1.67.4,1.05,1.05,0,0,0-.39.9c1,15.31.21,25.43-11,38a45.86,45.86,0,0,1-4.82,4.52c-4.64-9.41-18.71-9-26.42-15.85-1.61-1.42-5-1-5.31,1.49C119.71,98,112.19,111.55,106.69,126c-1.23,3.23-5.25,13-3.29,18-5.94,2.73-10.78,7.58-15.73,12.27-37.28-14.2-36.89,41.31-58.91,53.26-2.6,1.4-1.93,4.72.09,6.18,19.3,14,7.55,31.65,17.26,46.75C36,277.77,38.84,301,23.69,311.29a3.13,3.13,0,0,0,.84,5.65c30.22,8.52,21.11,45,45.62,57.82,9.53,5,18.21,7.79,26.7,5.78-3.4,10-.46,19.83.26,29.62A30.45,30.45,0,0,1,80.54,406c-4.17-2.34-7.91-5.41-12-7.93a22.67,22.67,0,0,0-6.41-2.36,19.64,19.64,0,0,0,5.73-7.87c1.5-3.55,4.26-8.19,3-12.14a1.09,1.09,0,0,0-2-.22c-3.32,6.72-6.42,15.44-13.35,18.94a2.36,2.36,0,0,0-.41,3.7c3,2.9,6.63,3.68,10.22,5.66,5.22,2.88,9.41,7.28,14.72,10.08,4.4,2.33,11.56,4.92,17.07,3.59a28.64,28.64,0,0,1-2.2,8.87c-1.45,3.36,1,6.41,4.59,5.79,14.08-2.45,34.3,20.95,48.68,10.9,5.48,7.16,8.95,14.67,6.54,23.33a1.28,1.28,0,0,0,2.15,1.2c16.48-20.1,56.05,26.57,74,10.29,5.73,22.44,54,14,66.63,31.16a2.18,2.18,0,0,0,2.4.94c8.44-2.27-10.11-5.38,18.38-9.55,9.08-1.31,18.44.77,27.62-.46,13.31-1.81,20.64-12.6,20.11-25,12.84-.84,25.82-1.43,38.82,1.95a2.56,2.56,0,0,0,3.17-2.5c-.46-11.88,46-33.83,32.06-52.48a82,82,0,0,1,14.58,1.46c2.91.59,4.16-3.31,1.89-4.56,4.83-12.77,26.32-14.92,19.79-31,6.8-5.82,13.55-9.92,23-12.06,8.89-2,17.18-2.52,24-8.88a1.48,1.48,0,0,0,0-2.07c-15.42-11.95-5.44-24.52-2.5-38.7.67-3.27.71-7-.9-9.52C531,306.8,539.76,294.17,553.19,287,554.43,286.37,553.9,284.76,552.8,284.35ZM519,226.92c10.49.24,9,.67,4.71,8.76C510,261.76,489,279.12,460.44,287.12c-17.74,5-35,2.9-52.49,2.14,2.79-1.67,5.49-3.76,8.36-5.69,10.09-6.82,21-12.28,31.38-18.69.47-.27.05-.88-.4-.68-8.88,3.95-18.57,7.18-27.67,10.7-5.56,2.15-10.59,5.14-15.79,7.84A122.67,122.67,0,0,0,421,267.94a65.5,65.5,0,0,0,11.89-18.19c1.05-.37,9.09-4.16,16-8.1,10.27-6.41,19.94-14,31.58-18.43C495.67,217.43,505.21,226.6,519,226.92ZM498.48,190.4a36.34,36.34,0,0,0-2.66,10.3c-.69,4.68-.23,9.57-1.87,13.94a47.94,47.94,0,0,0-6.95.54c-8.61,1.29-16.67,5-24.29,9.77,2.58-3.84,5-7.76,7.34-11.43,4.65-7.44,7.17-15.48,9-23.7C485.55,189.45,492,190.53,498.48,190.4Zm-20.82-74.27c-1.34,5.9-1.09,11.87-2,17.92-.77,5-3,8.08-5.88,11.73-4.48-1.49-8.92-3.25-14.1-4.23a7.78,7.78,0,0,0-1.46-.15c1.28-8.49-.59-16.35-3.22-24.15A177.35,177.35,0,0,0,477.66,116.13ZM421.43,98c11.93-3.45,13.39-9.29,16.85,2.07,5.15,17,10.59,29.94,6.41,48.15-5,21.85-21.49,36.94-39.15,48.89-.07-1-.14-1.92-.27-2.87a52.52,52.52,0,0,0-6.92-19.34c.09,0,.19,0,.29-.06,16.39-9.07,21.3-23.35,17.23-41.16-2.05-8.91-8.31-17.24-13.84-24.16a77.4,77.4,0,0,0-6.93-7.34C402.52,96.59,413.25,100.31,421.43,98ZM361.87,81.4a23.2,23.2,0,0,0,4.87-4c3,9.27,9,15.39,15.84,22.49,20,20.8,35.78,46.66,14.8,73.24-6.23-10.44-14.47-19.73-19.22-31.31a2.22,2.22,0,0,0-4.24.07c-3,8.73-5.32,15.79-5.57,24.3-2.61-2.8-5.36-5.52-8.05-8.29.62-10.37,2.68-25.51-5.28-34.11-7.74-8.37-20-12.41-30.91-17.49C319.41,83.4,350,89.74,361.87,81.4ZM341.24,184.67c1.15,2.45,2.41,4.47,5.25,5.2,7.29,1.83,11.46,4,15.3,11a40,40,0,0,1,4.84,17.49c.26,4.9-1.83,8.89-3.1,13.32-7.48-1.42-14.48-2.78-17.26-6a1.22,1.22,0,0,0-1.46-.17c-14.72,10.92-42.87,27.72-61.47,27.08-6.71-6.31-13.25-12.77-16.81-20.62-1.74-3.8-8.33-.92-6.72,3,4.77,11.62,14.74,17.22,24.31,24.84a60.11,60.11,0,0,1,10.33,10.69c13.42,17.42-3.63,36.22-23.39,32.49-11.51-2.16-23.07-10.86-33.18-16.45-19.1-10.56-34.43-21-35.26-44.71-.8-22.38,46.39-10.44,61.57-12,.79-.1,1.08-1.35.16-1.49-21.85-3.44-56.18-25.72-68.44,3.86a31.77,31.77,0,0,0-1.1,20.93c-3.93-5.46-8.54-11-10.51-15.93-4.49-11.37-3.24-24.51-1-36.1,3.72-19.57,17.46-37.57,27.35-54.51-.07.12.59-1.09,1.27-2.55,4,9.9,3.13,20.28-2.79,31.16-5.6,13.42-5.57,29.13-8.79,43.19-.46,2,2.49,3.37,3.44,1.39a101.36,101.36,0,0,0,6.38-17.87c9.42-13,23.11-32.06,40.07-21.67,6.29,3.84,12.49,5.2,18.92,3.2,0,7.08-1.58,14.92-1.39,21.86.32,11.37,3.64,23.19,6.46,34.11.46,1.78,3.35,1.83,3.68-.05,1-5.5.27-10.53-1.08-15.57a10.75,10.75,0,0,0,.41-3.07c.25-6.47,8.44-5.35,12.19-6a40.57,40.57,0,0,0,12-3.67,25.71,25.71,0,0,0,4.62,8.6,37.8,37.8,0,0,1,7.3,16.31c.25,1.41,2.13.83,2.27-.34.53-4.74.61-9.2-1.92-13.5-3-5.1-7.34-9.31-8.49-15.29-.3-1.57-2.15-1.88-3.36-1.31-7.8,3.7-17.35,3.48-24.65,7.76a5.14,5.14,0,0,0-1.76,1.74c2-12.71,10.71-22.94,24.17-26.91a13.82,13.82,0,0,0,5.09,8.1c2.3,1.6,8.8,4,7.05,8.16-1,2.48-2.48,4.36-3.26,7a.69.69,0,0,0,1.15.65c2.83-2.6,7.63-7.71,6.36-12.07a7,7,0,0,0-2.74-3.71,67.94,67.94,0,0,1-6.76-4.79c9.73,1.5,21.18,1.78,26,10.91a73,73,0,0,0-2.45,7c-.52,1.83-1,3.65-1.61,5.46-2.13-3.15-5.52-5.64-8.71-5.81a.47.47,0,0,0-.23.88c2.49,1.41,3.8,4.45,5.09,6.89a11.37,11.37,0,0,1,1.16,5.11,28.28,28.28,0,0,1-7.13,9.79c-1.15,1,.12,3.16,1.55,2.57,7.36-3.05,11.54-7.61,14.43-15.09,3.91-10.13,7-22.48,6.94-33.37,0-1.2-1.57-1.24-2-.24-1.42,3.78-3.11,7.49-4.74,11.22-6.24-6.5-21.63-6.45-28.92-5.86a12.67,12.67,0,0,1-3.23-5.61,1.83,1.83,0,0,0-2.25-1.24c-13.55,4.06-25,13.47-27.56,26-2-10.71,1.23-19.68,1.29-30.39a2.66,2.66,0,0,0-2.66-2.6c-.91,0-1.81,0-2.67,0A174.61,174.61,0,0,0,294,170.48c14.17-4.95,31.65,1.1,44.9,7a1.73,1.73,0,0,0,2-2.73c-7.69-8.42-24.27-13.92-35.53-13.75a25.68,25.68,0,0,0-9.18,2.32c-16.17-9.07,6.45-27.23,18.47-26.6,6.34.35,12.72,1.2,19.06,1.68,2.82.2,5.67.4,8.24-1.16,2.1-1.26-.34-.34.35,1.64,9.35,26.58,37.84,43.86,30.37,72.66a56.84,56.84,0,0,0-1.53-6.28,35.6,35.6,0,0,0-11.58-16.94c-4.92-3.92-12.35-.45-16.67-4.95C342,182.39,340.76,183.62,341.24,184.67ZM247.87,169.4c22.14-2.82,38.82-31.35,35.3-52.08-.33-1.92-2.77-2-3.94-1C268.07,126,254.72,130.56,242.7,138c.57-1.27,1.11-2.58,1.61-4,5.59-15.92,8.34-29.21,32.09-30.42,7.86-.4,13.55.39,21.09-1.82,6.26-1.83,14.64,7.25,20.95,9.94,19.83,8.48,34.78,18,36.43,40.24-4.72-5.57-8.62-11.68-10.1-19.31a1.45,1.45,0,0,0-1.79-1c-18.36,6.7-37.52-9-53.53,7.6-6.71,7-5.4,20.38,1.62,26.42-9.25,4.9-19.17,7.8-29.21,10.43-10.75-2-19.58-6.29-31.39-.73A38.82,38.82,0,0,0,215.91,188c5.68-13.13,10-26.68,20.3-37.82,12-13,29.62-16.93,42.94-27.7,1.15,18.79-15.23,37.23-31.87,42.92C245.2,166.12,245.49,169.7,247.87,169.4Zm125.59,52c8.72-9.21,10.51-21.73,7.69-33.89-1.7-7.26-5.64-13.12-10.36-18.54.64-7.73,1.56-15.84,5.71-22.5-2.87,4.61,3.72,10.81,6.74,15.16,17.7,25.41,19.21,51.91,5,82.74-1.45-6.82-9.8-9.54-18.78-11.46C372.24,230.1,373.28,225.87,373.46,221.37Zm-256.7-101c4.72-10.4,8.94-20.45,10.69-31.57,7.28,3.93,16.49,5.37,20.55,12.62a35.64,35.64,0,0,0-5.75,5.83c-8.28,11.16-10.44,21.88-10.86,35.59,0,1.46,0,2.91.08,4.34-4.24-3.2-10.09-4.74-15.82-5.24a23.86,23.86,0,0,0-6.17.32C108.77,135.78,114.5,125.4,116.76,120.41Zm-80,93c6.06-3.4,11.61-7.35,13.85-14.58,6.37-20.46,10.3-38.11,34-39.67-5.31,4.7-11,8.72-18.51,9.38a.48.48,0,0,0,0,1c10.6.3,17.75-1.47,26.18-8.26,14.31-11.51,28.28-16.54,41.52-1.27,6.22,19.26,23.38,33.67,41.27,42.51.9.45,1.92-.74,1.09-1.45-31.35-27.11-50.73-64.21-18.65-99.34,12.36-13.54,18.16-24.27,15.67-41,4.69,7,11.56,9.4,22,9.56,16.1.24,28.31,1.53,33.5,19.58,5.26,18.24,4,35-1.94,52.86a.71.71,0,0,0,1.3.54c10.21-18.21,11.31-36.11,6.41-55,9.21-16.09,18.61-26.15,36-34.58,9.67-4.72,15.92-8.38,20.85-15.73,2.73,7,7.53,11.7,15.08,16.85,14,9.54,38.61,9.8,49.18,22.94a.72.72,0,0,0,.21.12c-11.09,4.08-25.9.56-32.1,11.94-2.23,4.08-4.14,9.93-3.13,14.79-6.05-3.13-11.43-6.81-14.87-12.1a3.62,3.62,0,0,0-4.92-1.22C287.63,99.84,267,92.92,255.45,104c-11.23,10.74-12.17,27.18-20.25,39.34a58.08,58.08,0,0,0-6.53,6.09,59.06,59.06,0,0,0-7.73,10.94c1.79-8.68-3.4-21.14-8.85-27.12-1.39-1.53-3.77-.54-4.33,1.21a122.28,122.28,0,0,1-6.8,16.62c1.13-14.86-3.28-31.76-7.38-43.46-.17-.48-1-.41-.94.15,9.47,52.6-16.82,91.62-17.91,108.65a63.38,63.38,0,0,0,8.49,35,125.4,125.4,0,0,1-15.2-8.35,172.57,172.57,0,0,1-38.15-35.56.52.52,0,0,0-.89.53c7.89,15.18,16.75,29,29.27,40.79,1.34,1.25,2.79,2.57,4.33,3.89-6.34-.35-12.31.56-17.45,3.65-6.32,3.8-9.12,7.86-9.73,12.09-23.42-4.12-52.94-18.65-56-43.19-2.78-22.18,6.37-34.75-9.63-52.16-.41-.45-1.05.14-.79.64,7.62,14.75.88,35.72,1.89,51.66.53,8.25,4,15.44,8.73,21.91-10.52-.15-20.84,2.27-29,9.84C47.16,240.64,49.1,225.61,36.78,213.39Zm84.58,215.47a49.28,49.28,0,0,0-15.3-4.11c6.49-13.54-6.49-30.69-5.23-45.54a31.57,31.57,0,0,0,8-5.06c1.31-1.13-.4-2.91-1.77-2.23-33.37,16.57-45.41-17.12-55.59-39.19-4.32-9.34-11.1-15.15-19.63-19.29a21,21,0,0,0,6.77-9.62A217.76,217.76,0,0,0,45,280.25c5-21.61,21.24-23.95,37.3-29.33l.07.08c3.72,4.53,9.38,8.93,15.89,12.79a21.66,21.66,0,0,0-17.7,12.67c-3.19,6.63-4,13.73-4,21,0,6.79,1.13,13.92.32,20.68-.89,7.39-8.71,13.07-13.53,18-.62.65,0,1.94,1,1.59C75.73,333.37,80.8,322.46,84,311.39c2.3-7.92-.5-17.61,1.24-25.92,2.49-12,11-15.34,21.39-17.28,9.93,4.63,20.79,7.75,29.79,8,3.72,10.24,15.36,21,18.92,31.06a5.11,5.11,0,0,0-1.39.08,93.29,93.29,0,0,0-16.87,6.14c-5.75,2.68-10.28,6.55-16.74,7.86-.42.08-.25.67.11.71,11.7,1.09,24.53-2.55,35.51-6.31a13.14,13.14,0,0,1-3.38,5.85,1.91,1.91,0,0,0,1.4,3.22c21.81-.47,32.78,9.29,42.91,23.32-18.59,38.25-60.94,36.18-86.69,6.11-11.73-13.73-22-20.67-39.85-17.22-1.22.23-.8,2,.3,2,26.33,1.62,36.75,27.93,56.1,39.69-7.25,6.94-6.64,17.1-4.94,27.18,1.92,11.39,12.08,20.82,20.75,30.41C136,436.91,125.2,430.55,121.36,428.86Zm109.1,42c-.08.05-.19.05-.28.12-13.79,8.49-40.09-7.47-54.07-11.13-4.69-1.22-9.72,0-14.31,1-.73.15-1.33.3-1.89.44,2.12-9.53-1.42-18.11-8.16-25.43l-.34-.38A3.7,3.7,0,0,0,151,435c-14.72-16-28.18-31.79-20.85-54.38A37.66,37.66,0,0,0,152,384a59.44,59.44,0,0,0,14-3.63c-13.84,31.52,31.61,47.89,31.16,77.3a1.66,1.66,0,0,0,2.49,1.38c9.92-4.78,20.94-1,32.4,4.27A35.34,35.34,0,0,0,230.46,470.89ZM206,453c-6.24,1.86-3.47-10.59-6.32-15.65C187.84,416.4,168,405.8,169.47,378.82a71.06,71.06,0,0,0,30.19-26.71c2.12,3.11,4.24,6.37,6.45,9.75a36.71,36.71,0,0,0,13.36,12.52c-3.88,15.41,2.67,24.62,16,33.31,8.26,5.39,18.37,8.3,27.35,12.22,11.76,5.14,17.63,11.64,22.64,23a2,2,0,0,0,2.65.9,21.13,21.13,0,0,0-1.35,4,.28.28,0,0,0,.51.21,20.76,20.76,0,0,1,8.39-8.29c0,.13,0,.24,0,.37a10.56,10.56,0,0,0-1.35,7.11C283.57,489.69,232.14,445.21,206,453Zm64.14-37.5c-17.82-9.85-48.81-14.24-48.21-40a21.86,21.86,0,0,0,8.1,1.56c23.9-.37,33.61-31.15,39-53.07,3.5,9,16.28,13.28,24.68,16.66a86.48,86.48,0,0,0,19.53,5.15,3.48,3.48,0,0,0,.48,1.12c14.07,20.6,25.52,45.39,20,71.13-4,18.88-33.3,8.33-43.9,23C291.28,428.63,280,421,270.16,415.49Zm32.09,87.35c.61-.64-19.35-10.13-20.46-10.4C263,487.9,241.42,488,236,465.19c14.24,6.78,29,14.59,43.1,10.2,12.44-3.88,17.38-10.25,18.86-18.95a36.7,36.7,0,0,0,11.51,11.33c16.14,9,32.77,8.66,49.69,7.59C357.35,506,316.64,487.63,302.25,502.84Zm107.43-43.23c-3.59,4.47-3.56,10.43-10.38,8.32-33.59-10.38-86.08,18.12-100.82-29.29,0-.06-.08-.06-.11-.11,16.47-6.33,40.19,3.68,43.13-23.31a85.67,85.67,0,0,0-.58-21.82,79.41,79.41,0,0,0,22.14,20.84c21.71,13.63,45.38,8.54,68.58,7.69a2.24,2.24,0,0,0,.27.34C448.45,435.62,415.44,452.51,409.68,459.61Zm119-160.19c-9,9.67-18.85,17.39-29.37,25.31-1.47,1.1-.6,3.73,1.37,3.11a47.78,47.78,0,0,0,13.29-6.68c1.14,9-.2,15.87-3.09,25.3-1.71,5.55-.45,12.36,4.5,15.81,5.88,4.1-5.21,3.61-8.29,4.37-6.5,1.58-12.62,2.93-18.73,5.67A39.18,39.18,0,0,0,473.73,383c-6.21-9.64-20.31-21.42-34.09-26.15,16-5,32.21-11.28,48.72-13.7a1.83,1.83,0,0,0-.05-3.66C445.63,334.82,412,369.83,368,351.83a1,1,0,0,0-1,1.8c19.33,12.5,38.5,12,57.79,7.39,6.28,3.26,13.56,4.6,20,7.76s31.94,19.83,22,30.56c-5.36,5.78-14.76,10.66-13.3,18.68-21.36-4.69-43,.11-65-3.82-22.43-4-38.43-17.7-50.81-35a139.89,139.89,0,0,0-15.41-32.46c19,1.49,38.61-.49,57.28,1.9a2.1,2.1,0,1,0,.49-4.15c-16.48-1.78-32.59-4.53-49.17-5.71-18.2-1.28-48.67-3.11-60.76-19.75.52-2.17,1-4.25,1.43-6.1a.92.92,0,0,0-1.69-.67c-7.88,12.59-11.18,26.29-17.34,39.81-9.63,21.19-33,18.62-45.29,1.72-3.8-5.24-6.75-11.35-10.3-16.78-6.27-9.57-26.71-23.78-37.87-15.57,8.87-6.53-1-22.63-5.51-28-11.7-13.88-5.54-36.85,14.27-31.35,7.36,2.05,13.71,6.65,20.91,9.06,7,2.34,13.1,4.13,19.61,4.49a71.65,71.65,0,0,0,15.38,12.22c2.75,1.6,6.68,4,11.3,6.71-2.63,2-6.68,3.17-9.28,4.6a146.31,146.31,0,0,1-17.69,8.21.48.48,0,0,0,.27.92c7.87-1.59,15.23-.12,23-2.92,4.09-1.47,8.22-3.39,11.13-6.61,12.8,6.95,28.6,13.93,41.11,13.15,11.37,3,23.54-.83,35.32-.63,24.65.44,48.72,7.87,62.24,29.59a3.08,3.08,0,0,0,5.68-1.63C387.31,322,363.73,316,350.45,312c-10.33-3.14-20.84-4.29-31.57-4.9-8.74-.49-17.21,1.28-25.75,2.27a18.29,18.29,0,0,0,5-4.19c7.28,1.14,17.16-3.46,23.18-6.42,9.32-4.6,15.09-12.84,19-22.19a.29.29,0,0,0-.5-.28c-6,8.33-14.08,13.2-23.66,16.41-3.84,1.28-8.6,1.81-13,2.89,5.53-16.92-4-27.83-15.12-38.43,5.08,1.6,9.9,1.28,15.9-2.17,12.72-7.34,29.78-11.35,39.21-23,3-3.71,1.41-.87,5.94.85,12.18,4.64,28.5,4.62,36,17.17-12.57,23.71-21.24,51.79-53.65,52.88a.52.52,0,0,0,0,1c25.94,2.59,39.34-15.29,52.13-35.18,10.76-16.72,21.48-32.81,35.16-47.32,7.16-7.6,12.25-14.6,13.35-25,.36-3.43-5.55-4.14-6-.73-1.88,13.34-13.72,19.35-22.75,27.3-1,.88-1.87,1.91-2.78,2.9a63.12,63.12,0,0,0,5.07-25.2c19.19-12.56,36.66-28.25,45.81-49.65a39.38,39.38,0,0,0,1.38-3.83c6.35-.9,13.24,6.71,19.28,7,7.55.34,13.33-4.43,10.35,5.28-4.23,13.7-6.75,27.27-12.33,40.67-5.33,12.76-19.36,31.95-32.92,38.47,4.49-13.51,2.54-20.32-2.35-33.3a.51.51,0,0,0-1,.16c-.15,45.75-29.47,77.93-68.67,97.25-.37.18-.1.81.29.65a231.74,231.74,0,0,0,21.68-10.13,2.59,2.59,0,0,0,1,1.06,64.25,64.25,0,0,0,14.42,6c-7.13,1.07-12.91,2.23-16.24,3.09-1,.27-.66,1.62.26,1.72,13.91,1.4,110.89-9.43,99.28,26.59-.42,1.27,1.68,2.14,2.2.89,8.81-21.63-6-30.88-27-34a134.47,134.47,0,0,0,17-6,74,74,0,0,0,28.6-21.73c9.94-.71,18,4.53,26.23,10.43,4.07,2.9,8,5.45,12.29,6.31A51.59,51.59,0,0,0,528.65,299.42Z" transform="translate(-22.26 -25.7)"/>
  </g>
</svg>
