<svg id="Layer_1" data-name="Layer 1" 
    xmlns="http://www.w3.org/2000/svg" viewBox="0 0 119.58 30.17">
    <defs>
        <style>.almaymente1{fill:#fff100;}</style>
    </defs>
    <path class="almaymente1" d="M40.62,24.9a33.92,33.92,0,0,0-5.91,1.65c-1,1.4-2,3.07-3.14,5L30.75,33c-.15.26-.37.63-.67,1.12S29.4,35,29,35a.64.64,0,0,1-.5-.23.66.66,0,0,1-.2-.45,8.87,8.87,0,0,1,1.16-2.47c.43-.74,1.07-1.78,1.93-3.13.33-.52.6-.94.79-1.27a13.64,13.64,0,0,0-1.71.6,1.42,1.42,0,0,1-.62.17.54.54,0,0,1-.48-.27.71.71,0,0,1-.12-.41.8.8,0,0,1,.37-.75,10.86,10.86,0,0,1,2.18-.85c.77-.25,1.39-.48,1.85-.68.21-.27.78-1.07,1.71-2.38q.59-.86,3.35-4a56.91,56.91,0,0,1,4.11-4.34c.81-.79,1.44-1.18,1.88-1.18a.94.94,0,0,1,.7.32,1,1,0,0,1,.25.66,5,5,0,0,1-.44,1.52c-.5,1.28-1,2.64-1.43,4.09-.39,1.28-.66,2.27-.79,2.95h.37l.75,0c.6,0,.9.23.9.68a1,1,0,0,1-.2.59.76.76,0,0,1-.44.35,2.38,2.38,0,0,1-.51,0,6,6,0,0,0-1.32.11,51.17,51.17,0,0,0-1.18,5.64,35.39,35.39,0,0,0-.41,3.7c0,.75-.22,1.12-.67,1.12a.9.9,0,0,1-.82-.55,1.92,1.92,0,0,1-.22-1A30.5,30.5,0,0,1,40,27.71C40.3,26.49,40.49,25.55,40.62,24.9Zm.43-1.68c.1-.3.33-1.1.72-2.41.09-.34.33-1,.71-2s.69-1.88.92-2.51a11.43,11.43,0,0,0-2,1.77,42.85,42.85,0,0,0-5.18,6.45c.39-.09,1.21-.33,2.47-.7C39,23.68,39.81,23.49,41.05,23.22Z" transform="translate(-28.34 -12.85)"/>
    <path class="almaymente1" d="M46.34,28.32c-.31.81-.55,1.46-.7,2a3.86,3.86,0,0,0-.23,1c0,.26.12.39.37.39s.85-.36,1.44-1.06a18.93,18.93,0,0,0,1.25-1.85c.22-.35.44-.53.68-.53s.41.13.41.39A6.79,6.79,0,0,1,48,31.37c-1.07,1.42-2.06,2.12-3,2.12a1.15,1.15,0,0,1-1-.49,1.47,1.47,0,0,1-.26-.87,8.06,8.06,0,0,1,.53-2.41A35.7,35.7,0,0,1,45.92,26a52.8,52.8,0,0,1,5.45-9.25c1.49-1.95,2.71-2.92,3.69-2.92a.94.94,0,0,1,.76.36,1.2,1.2,0,0,1,.31.82c0,1.45-1.29,3.87-3.88,7.24a37.31,37.31,0,0,1-4.17,4.51Zm1.1-2.47a28.39,28.39,0,0,0,5.78-7A8.07,8.07,0,0,0,54.55,16c0-.23-.1-.35-.3-.35q-.86,0-3.11,3.41A48.15,48.15,0,0,0,47.44,25.85Z" transform="translate(-28.34 -12.85)"/>
    <path class="almaymente1" d="M53.3,28.3a22.89,22.89,0,0,1,2.3-2.14,4.91,4.91,0,0,1,2-1.17.59.59,0,0,1,.44.19.53.53,0,0,1,.17.37,2,2,0,0,1-.54,1,8.92,8.92,0,0,0-1.17,1.81c2.42-2.44,4.08-3.65,5-3.65a.72.72,0,0,1,.49.17.59.59,0,0,1,.21.46,1.87,1.87,0,0,1-.66,1.12q-2.94,3-2.94,5a1.79,1.79,0,0,0,.28,1.13l.4.51a.57.57,0,0,1,.13.36.67.67,0,0,1-.21.47.72.72,0,0,1-.52.25,1.18,1.18,0,0,1-1-.66,3.11,3.11,0,0,1-.53-1.83A5.82,5.82,0,0,1,58,28.77a10.4,10.4,0,0,1,.93-1.37,14.92,14.92,0,0,0-2.69,2.74,16.09,16.09,0,0,0-1.68,2.64c-.24.47-.52.7-.84.7s-.53-.2-.53-.59a8.85,8.85,0,0,1,.87-2.63,24.87,24.87,0,0,1,1.23-2.39,12.42,12.42,0,0,0-4,5.56q-.33.78-.87.78A.5.5,0,0,1,50,34a.64.64,0,0,1-.17-.45,10.38,10.38,0,0,1,1-3.31,26.69,26.69,0,0,1,2.42-4.55c.62-.95,1.11-1.42,1.45-1.42s.46.17.46.5a3.38,3.38,0,0,1-.57,1.09A20.1,20.1,0,0,0,53.3,28.3Z" transform="translate(-28.34 -12.85)"/>
    <path class="almaymente1" d="M66.5,30.91a11.6,11.6,0,0,1-1,1.53,2.64,2.64,0,0,1-1.94,1.21,1.45,1.45,0,0,1-1.31-.79,2.37,2.37,0,0,1-.3-1.22A8.39,8.39,0,0,1,63,27.84,10.05,10.05,0,0,1,66,24.28a3.68,3.68,0,0,1,2.16-.81,1.52,1.52,0,0,1,1.08.4,1.11,1.11,0,0,1,.38.81,2.57,2.57,0,0,1-.27.95,1,1,0,0,1,.24.57,2.66,2.66,0,0,1-.44,1.08,11.68,11.68,0,0,0-.9,2,6.72,6.72,0,0,0-.48,2.14,1.52,1.52,0,0,0,.39,1.08,2.76,2.76,0,0,0,.63.35.67.67,0,0,1,.39.66.61.61,0,0,1-.22.48.8.8,0,0,1-.54.2,1.82,1.82,0,0,1-1.45-.75,2.31,2.31,0,0,1-.49-1.52C66.44,31.73,66.46,31.39,66.5,30.91Zm1.94-5.11a1.56,1.56,0,0,0-.4-.51.83.83,0,0,0-.47-.16c-.79,0-1.64.69-2.56,2.07a7.4,7.4,0,0,0-1.53,3.87,1,1,0,0,0,.15.59.53.53,0,0,0,.44.2c.5,0,1.08-.53,1.75-1.58a27.34,27.34,0,0,0,1.38-2.57A15.14,15.14,0,0,1,68,26.25,2.67,2.67,0,0,1,68.44,25.8Z" transform="translate(-28.34 -12.85)"/>
    <path class="almaymente1" d="M83.71,29.13c-.93,1.08-1.66,1.89-2.21,2.42a4.53,4.53,0,0,1-2.72,1.56,1,1,0,0,1-.84-.39,1.24,1.24,0,0,1-.23-.78q0-1.68,2-4.46C81,25.59,82,24.65,82.62,24.65a.54.54,0,0,1,.43.22.53.53,0,0,1,.18.4,1,1,0,0,1-.18.6A14.87,14.87,0,0,1,82,27a15.7,15.7,0,0,0-1.63,2,3.85,3.85,0,0,0-.86,1.77c0,.22.1.33.31.33.42,0,1.19-.56,2.33-1.69.72-.72,1.28-1.32,1.68-1.81.09-.1.45-.59,1.09-1.47s.94-1.24,1.07-1.39a1.25,1.25,0,0,1,.87-.54.58.58,0,0,1,.45.22.63.63,0,0,1,.19.46,3.73,3.73,0,0,1-.62,1.51c-.5.86-1,1.66-1.37,2.41A26.14,26.14,0,0,0,84,31.91a8.27,8.27,0,0,0,1.82-1.42,8.68,8.68,0,0,0,1.71-2.08c.2-.41.4-.62.61-.62a.38.38,0,0,1,.43.43,4.68,4.68,0,0,1-1.4,2.46A14.68,14.68,0,0,1,83.07,34a48.18,48.18,0,0,1-2.47,5.2Q78.43,43,76.11,43a1.85,1.85,0,0,1-1.53-.73,2.17,2.17,0,0,1-.45-1.41q0-2.43,3.41-5a29.1,29.1,0,0,1,2.95-1.87c.53-.3.94-.54,1.24-.73.19-.47.47-1.11.86-1.89S83.39,29.81,83.71,29.13Zm-2.86,6.11a15.4,15.4,0,0,0-3.38,2.39,4.36,4.36,0,0,0-1.74,3,.76.76,0,0,0,.78.78c.78,0,1.64-.81,2.58-2.44.16-.27.58-1.16,1.28-2.69Q80.58,35.8,80.85,35.24Z" transform="translate(-28.34 -12.85)"/>
    <path class="almaymente1" d="M105.36,28.63c.33-.49,1.1-1.66,2.3-3.51,1-1.59,2.66-3.87,4.91-6.86q2-2.6,3.55-4.35a2.52,2.52,0,0,1,1.68-1.06.92.92,0,0,1,.7.3.78.78,0,0,1,.24.59,4.09,4.09,0,0,1-.63,1.66l-1.28,2.26c-1.37,2.42-2.29,4.15-2.78,5.19a57.57,57.57,0,0,0-2.94,7.26,10.23,10.23,0,0,0-.54,2.62,2.56,2.56,0,0,0,0,.39c.05.41.08.64.08.72a1.25,1.25,0,0,1-.35.84.86.86,0,0,1-.66.35.83.83,0,0,1-.72-.51,2.18,2.18,0,0,1-.23-1.09q0-4.39,7.33-17.28a74.11,74.11,0,0,0-8.5,11.75,10.62,10.62,0,0,1-1.69,2.25,1.92,1.92,0,0,1-1.25.58.93.93,0,0,1-.87-.52,1.65,1.65,0,0,1-.18-.79q0-3.89,4.61-12.23a27.55,27.55,0,0,0-3,3.71,73.79,73.79,0,0,0-4.7,8q-1,2-2.37,5.27-.7,1.68-1.62,1.68a.47.47,0,0,1-.39-.2.53.53,0,0,1-.12-.35,6.75,6.75,0,0,1,.57-1.61q1.23-2.91,1.88-4.18a73.4,73.4,0,0,1,7.91-12.25A39.64,39.64,0,0,1,109,14.16a2,2,0,0,1,1.26-.73.87.87,0,0,1,.6.28,1,1,0,0,1,.36.74,3.7,3.7,0,0,1-.65,1.54,48.46,48.46,0,0,0-3.44,6.84A29.23,29.23,0,0,0,105.36,28.63Z" transform="translate(-28.34 -12.85)"/>
    <path class="almaymente1" d="M116.12,30.49v.28a1,1,0,0,0,.17.6,1.42,1.42,0,0,0,1.27.57q1.95,0,4.5-3c.3-.35.55-.52.76-.52a.43.43,0,0,1,.31.17.42.42,0,0,1,.09.24c0,.4-.5,1.08-1.49,2a11.33,11.33,0,0,1-2.49,1.85,5.16,5.16,0,0,1-2.45.71,2.29,2.29,0,0,1-1.84-.8,2.4,2.4,0,0,1-.45-1.53A7.38,7.38,0,0,1,117,26c1.34-1.37,2.5-2.06,3.5-2.06a1.22,1.22,0,0,1,.73.25,1.06,1.06,0,0,1,.4.86,4,4,0,0,1-.76,2A8.06,8.06,0,0,1,116.12,30.49Zm.34-1.21a6.48,6.48,0,0,0,1.71-.84,6.94,6.94,0,0,0,1.72-1.89,1.27,1.27,0,0,0,.24-.67c0-.21-.1-.31-.3-.31a2.2,2.2,0,0,0-1.15.6A8,8,0,0,0,116.46,29.28Z" transform="translate(-28.34 -12.85)"/>
    <path class="almaymente1" d="M126.52,28.15l.38-.38q3.25-3.16,4.36-3.17c.4,0,.6.23.6.67a1.88,1.88,0,0,1-.54,1.11q-3,3.47-3,6.1a3.17,3.17,0,0,0,.47,1.64,1.18,1.18,0,0,1,.21.56.48.48,0,0,1-.18.35.64.64,0,0,1-.48.22,1.26,1.26,0,0,1-1.08-.81,3.75,3.75,0,0,1-.42-1.85A8.92,8.92,0,0,1,128.46,28a12.34,12.34,0,0,0-3.93,4.78c-.31.55-.65.83-1,.83a.57.57,0,0,1-.43-.19.73.73,0,0,1-.22-.56c0-.56.64-2,1.91-4.4a31.3,31.3,0,0,1,1.62-2.8c.39-.57.73-.85,1-.85a.55.55,0,0,1,.39.19.68.68,0,0,1,.21.49,2,2,0,0,1-.45,1A17.07,17.07,0,0,0,126.52,28.15Z" transform="translate(-28.34 -12.85)"/>
    <path class="almaymente1" d="M137.52,23.47A26.22,26.22,0,0,0,135.66,27a11.58,11.58,0,0,0-1.23,4.14.92.92,0,0,0,.16.59.6.6,0,0,0,.49.2c.52,0,1.15-.49,1.88-1.46a18.35,18.35,0,0,0,1.25-1.81c.19-.34.41-.51.63-.51a.46.46,0,0,1,.34.14.42.42,0,0,1,.13.28,6.84,6.84,0,0,1-1.51,2.57c-1.2,1.59-2.3,2.39-3.29,2.39a1.59,1.59,0,0,1-1.33-.73,2.34,2.34,0,0,1-.32-1.32A11.2,11.2,0,0,1,134,27.07c.17-.41.66-1.41,1.46-3a2.42,2.42,0,0,1-.64.11,1.11,1.11,0,0,1-.58-.15.66.66,0,0,1-.34-.55.7.7,0,0,1,.45-.62,7.52,7.52,0,0,1,1.15-.2,8.32,8.32,0,0,0,1.09-.29,27.8,27.8,0,0,1,1.77-2.66c.46-.63.78-1,.95-1.22a1,1,0,0,1,.66-.38.58.58,0,0,1,.4.21.64.64,0,0,1,.19.41,4,4,0,0,1-.87,1.6,14.53,14.53,0,0,0-.86,1.26,11.05,11.05,0,0,1,2.47-.47c.57,0,.86.24.86.72a.57.57,0,0,1-.3.53,2.54,2.54,0,0,1-.81.15,16.12,16.12,0,0,0-2.34.59Q138.08,23.28,137.52,23.47Z" transform="translate(-28.34 -12.85)"/>
    <path class="almaymente1" d="M140.82,30.49v.28a1,1,0,0,0,.17.6,1.42,1.42,0,0,0,1.27.57q2,0,4.49-3c.31-.35.56-.52.77-.52a.43.43,0,0,1,.31.17.42.42,0,0,1,.09.24c0,.4-.5,1.08-1.49,2a11.33,11.33,0,0,1-2.49,1.85,5.16,5.16,0,0,1-2.45.71,2.29,2.29,0,0,1-1.84-.8,2.4,2.4,0,0,1-.45-1.53A7.38,7.38,0,0,1,141.67,26c1.34-1.37,2.5-2.06,3.5-2.06a1.22,1.22,0,0,1,.73.25,1.06,1.06,0,0,1,.4.86,4,4,0,0,1-.76,2A8.06,8.06,0,0,1,140.82,30.49Zm.34-1.21a6.48,6.48,0,0,0,1.71-.84,6.94,6.94,0,0,0,1.72-1.89,1.27,1.27,0,0,0,.24-.67c0-.21-.1-.31-.3-.31a2.2,2.2,0,0,0-1.15.6A8,8,0,0,0,141.16,29.28Z" transform="translate(-28.34 -12.85)"/>
</svg>