<svg id="Logo_cerebro" data-name="Logo_cerebro" 
    xmlns="http://www.w3.org/2000/svg" viewBox="0 0 249.25 214.84">
    <defs>
        <style>.brain-1,.brain-3,.brain-4,.brain-5{fill:#fff100;}.brain-1,.brain-2{fill-rule:evenodd;}.brain-2{fill:#f5bb17;}.brain-3{font-size:31.83px;}.brain-3,.brain-4,.brain-5{font-family:FreestyleScript-Regular, Freestyle Script;}.brain-4{font-size:16.52px;}.brain-5{font-size:6.03px;}</style>
    </defs>
    <path class="brain-1" d="M209.41,47.82c-1.06.78-.36.32,1.91,3,5.25,6.11,14.19,15.12,17.09,21.28,6.91,14.68.32,26.08-16.56,20.94-11-3.35-18.13-11-28.13-15.76-11.75-5.52-22.33-5.24-35-8.85-31.45-8.92-8.32-37.46,19-38.9,11.8-.62,16.31,5.14,21.35,11.75l14.41,18.52a36.48,36.48,0,0,0,5.31,5.65c1.06.89,1.87,1.7,2.92,2.59,1.48,1.25,2.08.76,2.31,2.56-2.22.48-3.93-1.79-7.11-4.37a62.71,62.71,0,0,1-6.37-5.7l-17-19.18C176,33,166,34.12,156.6,38.91c-4.7,2.4-11.64,6.27-8.29,14S168,61.08,181.52,68c11,5.57,19.91,14.35,31.68,17.16,8.16,2,14.12-1.09,11.94-9.75s-11.51-15.61-15.43-20.78L188.19,27.3c-13.74-16.72-30.94-7.17-44.65-3.16-14.46,4.23-25.17,5.34-31.34,17-3.33,6.28-3.16,12.58-.17,19,7,15,35.56,14.93,53,20,18.45,5.3,31.64,14.94,47,26,13.24,9.54,41.15,28.94,40.64-4-.38-24.65-14.59-33.52-29.56-43.32C220,56.72,211.3,50.19,209.41,47.82Z" transform="translate(-8.92 -17.77)"/>
    <path class="brain-2" d="M154.89,228.86l.26,3c2.08.43,1.52.19,3.42-.31a36.1,36.1,0,0,0,11-11.42c11-17.4,3-36.86-9.55-48.38-12.9-11.88-22.9-30-8.47-45.84a20,20,0,0,1,16.66-6.2c9.15,1,16.05,6.12,21.9,12.12,2.11,2.16,3.71,5.07,4.92,6.54,6.58,8,7.91,18.37,21.27,24.28,12.22,5.41,27.94.09,33.1-7.43,3.83-5.59,5.64-7.89,7.57-15.42,1.49-5.84,2.14-14.84-1-19.8l-.45.74c-1,2.3-.68,3.51-3.33,5.46-2.16,1.59-4.68,2-7.74,2-13.06-.24-31.64-11.94-40.33-19.2-26.26-22-66-2.81-71.69,29.17a56.17,56.17,0,0,0,4.52,33.6c5.22,10.76,17.13,23.34,19.76,40.06C158.08,220.41,156.34,221.72,154.89,228.86Z" transform="translate(-8.92 -17.77)"/>
    <path class="brain-2" d="M168.5,86.44c-17-5-14.37-4.87-33.61-7-9.76-1.1-22.6-4.69-28.46-12-10.63-13.2-4.75-32.84,8.61-41,8.62-5.27,12-2.55,15.26-4.85-5.65-1.87-28.36-.81-35.08.35-6,1.06-8.64,4.83-11.06,8.19C69.37,50.63,77,66.24,95.32,78.49c3.3,2.2,9.91,4.87,7,10.28-1.15,2.13-11.71,11-14.85,13.66C77.52,110.78,66.56,120.74,60,132c-5.39,9.2-3.23,17.92,3,18.84,20.69,3.06,22.84,9.07,27.23,10.22.17-2.38-11.63-15.61-4.33-32.72,3-7.07,7.6-13.49,13.6-17.8,3.88-2.78,5.1-4.81,12.17-8.62,2.46-1.33,4.33-2.47,6.81-3.64C135.27,90.38,149.28,87.64,168.5,86.44Z" transform="translate(-8.92 -17.77)"/>
    <path class="brain-1" d="M49.15,148.53c-1.38-2.7-3.36-4.71-3.3-9.17.1-6.78,7.51-13.14,11.86-17.86,3.16-3.43,6.07-5.15,10.5-10.39,2-2.32,4.46-3.68,6.65-5.91,4.22-4.31,8.78-7.62,12.47-12.22,10-12.44-9.38-12.33-18.58-26.3a29.27,29.27,0,0,1-4.91-19.8,24.89,24.89,0,0,1,3.22-9.28c1.61-2.87,4.4-5,5.27-6.74-4.46.63-7.14,2.65-10,4.73a67.9,67.9,0,0,0-7.89,6.94c-4.27,4.63-10.13,11.29-11.61,18C38.46,80,69.68,87.5,57.89,99.2c-4.49,4.45-24.09,11.19-33.36,25.34C11.36,144.66,39.76,153.43,49.15,148.53Z" transform="translate(-8.92 -17.77)"/>
    <path class="brain-2" d="M180.62,94.59c-2.26-2-6.2-2.21-9.42-2.58-18.43-2.1-35.82,4.66-51.63,13.48a77.34,77.34,0,0,0-18.71,14.76c-8.28,9.16-9.15,22.67-4.06,33.54,4.13,8.84,13.53,19.17,22.86,21.57,23.08,5.95-4.68-16.16,6.5-46.69,0-.12.1-.27.15-.4l1.63-4a36.63,36.63,0,0,1,1.76-3.68C140.41,102,159.46,94.63,180.62,94.59Z" transform="translate(-8.92 -17.77)"/>
    <path class="brain-1" d="M165.5,166.24c1.81-3,1.31-12.07,15.76-2.6,10.47,6.86,18.72,19.37,36.36,17.6a25.57,25.57,0,0,0,10.1-3.21l5.84-4a4.37,4.37,0,0,0,1.85-2.53c-37.4,7-35.06-22.15-52.45-37.77a12.52,12.52,0,0,0-3.29-2.48,19.47,19.47,0,0,0-7.83-3c-7.11-1.29-10.72-.5-15.79,3.36C145.49,139.56,147.68,159.59,165.5,166.24Z" transform="translate(-8.92 -17.77)"/>
    <path class="brain-1" d="M16.9,124.45c2.73-6.52,8.89-11.68,13.5-15.44,8.85-7.24,12.77-8.39,17.25-11.78s1.11-6.26-1.53-8.47c-10.19-8.54-12.62-18.49-9-31.25-8.36,1.12-19.22,21.21-22.7,28.36C8.15,98.65,5.21,124,16.9,124.45Z" transform="translate(-8.92 -17.77)"/>
    <path class="brain-1" d="M209.6,187.48c-13.69-2.82-20.22-11.06-28.59-17.55-11.54-8.94-15,2.56-7.45,9.62C181.88,187.32,205.86,190.76,209.6,187.48Z" transform="translate(-8.92 -17.77)"/>
    <path class="brain-2" d="M158.57,231.56c-1.9.5-1.34.74-3.42.31l-.26-3c-1,2.62-.37,4.81,3,3.21Z" transform="translate(-8.92 -17.77)"/>
    <text class="brain-3" transform="translate(21.61 186.92)">Alma y Mente</text>
    <text class="brain-4" transform="translate(82.66 201.9)">Alma García</text>
    <text class="brain-5" transform="translate(116.47 206.49)">Terapeuta</text>
</svg>