<svg id="loginsvg" data-name="Layer 1" xmlns="http://www.w3.org/2000/svg" viewBox="0 0 261.55 41"><defs><style>.cls-1{fill:#fff;}</style></defs><path class="cls-1" d="M41.54,32.57C40.5,37.2,38.07,43,34.33,43c-9.13,0-8.9-20-8.56-26.56L18.68,29.91a17.79,17.79,0,0,1,7.09,2.55A2.06,2.06,0,0,1,26.16,34a30.43,30.43,0,0,0-8.44-2.32c-2.12,4.05-5.94,11-11.45,11-3.31,0-5-1.89-5-4.16,0-4.59,7.06-8.79,15.11-8.79h.43l9.4-17.34a2.34,2.34,0,0,1,2.35-.12c-.58,19.12,1.89,28.83,6.13,28.83,2.66,0,4.24-3.16,5.63-8.83Zm-26.21-1c-9.14,0-12.22,3.81-12.22,6.55a2.9,2.9,0,0,0,3.24,3.05c4.28,0,6.55-4.24,9.4-9.6Z" transform="translate(-1.22 -12)"/><path class="cls-1" d="M53.26,32.53c-1.39,5-4.59,10.14-9,10.14-3.16,0-4.44-2.62-4.44-6.13,0-4.58,3-18.77,3-23a5,5,0,0,1,2.66-1c0,4.7-3.16,19.23-3.16,23.86,0,2.54.85,4.47,3.16,4.47,2.85,0,5.7-4.63,6.51-8.63Z" transform="translate(-1.22 -12)"/><path class="cls-1" d="M86.36,32.53c-1.31,5-4.58,10.14-9,10.14-2.69,0-3.73-2.27-3.73-5.4,0-2.5,1.19-5.93,1.19-8.47s-.35-4.28-2.39-4.28c-3.35,0-5.63,5-6.67,9.44a40.79,40.79,0,0,0-1.19,7.71,6.19,6.19,0,0,1-2.66,1c0-4.28,1.77-9.21,1.77-13.72,0-2.54-.77-4.43-2.62-4.43-3.93,0-6.55,7.13-7.25,11.91a46.91,46.91,0,0,0-.54,5,3.8,3.8,0,0,1-2.62.88c0-2.89,1.78-12,2.62-19.15A3.21,3.21,0,0,1,56,22.94l-.81,5.12c1.43-3,3.51-5.39,6.56-5.39,3.27,0,4.58,2.5,4.66,5.86,1.47-3.24,3.7-5.86,6.94-5.86,3,0,4.2,2.12,4.2,5.47,0,2.58-1.2,6.32-1.2,9.06,0,2.23.51,3.66,2.28,3.66,2.85,0,5.7-4.63,6.51-8.63Z" transform="translate(-1.22 -12)"/><path class="cls-1" d="M110.22,32.53c-1.38,5-4.58,10.14-9,10.14-3.2,0-4.55-2.47-4.58-5.86-1.47,3.24-3.63,5.86-6.79,5.86-3.66,0-5.24-3.81-5.24-7.86,0-4.51,3.12-12.18,9.79-12.18a9.86,9.86,0,0,1,4,.77l0-.19a2.6,2.6,0,0,1,2.66-.27c-.81,4.66-1.89,11.21-1.89,13.45,0,2.58.84,4.47,3.16,4.47,2.85,0,5.7-4.66,6.51-8.63Zm-12-7.43A6.4,6.4,0,0,0,94.5,24c-4.47,0-7.17,5.39-7.17,10.64,0,3.35,1.08,6.24,3.7,6.24,3.27,0,5.39-5.82,6.28-10.45C97.54,28.76,97.89,26.91,98.2,25.1Z" transform="translate(-1.22 -12)"/><path class="cls-1" d="M118.9,42.48a7.28,7.28,0,0,0-1.28,4.39c0,3.43,2.59,4.7,4.82,4.7,4.13,0,5.13-4.7,6-10.25.2-1.27.39-2.58.62-3.85-1.46,2.73-3.55,4.82-6.47,4.82-3.17,0-4.44-2.47-4.44-5.71,0-4.35,1.78-9.44,1.78-12.91a6.14,6.14,0,0,1,2.66-1c0,4.28-2,9.21-2,13.72,0,2.35.85,4.08,3.16,4.08,3.39,0,5.51-5.58,6.4-10.06l1.19-7.28a2.71,2.71,0,0,1,2.66-.19c-.61,3.47-1.89,10.75-3,18-.84,4.86-3,12-9.4,12-3.93,0-6.28-2.62-6.28-5.32a6.38,6.38,0,0,1,3.12-5.36Z" transform="translate(-1.22 -12)"/><path class="cls-1" d="M194.82,32.53c-1.31,5-4.31,10.18-8.59,10.18-3.55,0-5-2.62-5-6.09,0-4.16,2.74-14.34,2.74-18.23,0-2.93-.58-4.59-2.66-4.59-4.78,0-8.56,9.06-10.49,15.88a81.93,81.93,0,0,0-2.39,12.57c-1.58.46-2.5.19-3-.2.11-5.62,4.08-17,4.08-21.46,0-2.86-.58-4.59-2.66-4.59-6.13,0-10.79,13.49-11.68,18.73-.54,3.16-.92,5.82-1.15,7.52-1.58.46-2.47.19-3-.2.31-2.35,1.66-10.48,2.89-18.23a32.4,32.4,0,0,0,.5-4.78c0-3.85-2.5-5.47-5.86-5.47-2.58,0-7.28,1.74-7.28,7.21,0,3.54,3.93,5.74,7.78,4.24l.2.38c-3,3.59-9.6,2-9.6-4,0-6.21,5.51-9.22,9.71-9.22,5.09,0,8,3.09,8,7.25a24.77,24.77,0,0,1-.5,4.47l-.42,2.28c2.12-5.75,5.24-11.76,10.56-11.76,4.28,0,5.32,3.2,5.32,6.9,0,.27,0,.58,0,.89,2-5.36,4.85-10,9.17-10s5.32,3.2,5.32,6.94c0,4.59-2.54,14.15-2.54,17.35,0,2.46.73,4.35,3.08,4.35,2.74,0,5.47-4.62,6.24-8.59Z" transform="translate(-1.22 -12)"/><path class="cls-1" d="M212.21,32.61c-1.66,4.63-5.4,10.06-12.22,10.06-4.74,0-6.9-3.78-6.9-7.86,0-4.59,3.24-12.34,9.44-12.34,3.7,0,4.59,2.43,4.59,3.9,0,3.62-4.35,6.67-11.29,6.93,0,.43,0,.89,0,1.32,0,3.31,1.46,6.24,5.36,6.24,5.66,0,8.94-5.36,9.79-8.63Zm-7.52-6.4c0-1.89-1.08-2.39-2.12-2.39-3.54,0-5.93,3.86-6.59,8.25C202.15,31.72,204.69,29.26,204.69,26.21Z" transform="translate(-1.22 -12)"/><path class="cls-1" d="M233.72,32.53c-1.31,5-4.59,10.14-9,10.14-2.7,0-3.74-2.27-3.74-5.4,0-2.5,1.19-5.93,1.19-8.47s-.35-4.28-2.27-4.28c-4,0-6.44,7.13-7.13,11.87a45.11,45.11,0,0,0-.54,5,3.83,3.83,0,0,1-2.62.88c0-2.89,1.77-12,2.62-19.15a3.2,3.2,0,0,1,2.66-.23l-.81,4.93c1.5-2.93,3.62-5.2,6.67-5.2s4.08,2.12,4.08,5.47c0,2.58-1.19,6.32-1.19,9.06,0,2.23.5,3.66,2.27,3.66,2.85,0,5.7-4.63,6.51-8.63Z" transform="translate(-1.22 -12)"/><path class="cls-1" d="M245.39,32.53c-1.38,5-4.58,10.14-9,10.14-3.16,0-4.43-2.62-4.43-6.09,0-2.58.93-7.63,1.7-12.14-.93,0-1.81-.08-2.74-.19a1.44,1.44,0,0,1,.12-1.31,24.44,24.44,0,0,0,2.85.07,43.43,43.43,0,0,0,.73-6.05,4.52,4.52,0,0,1,2.66-1,50,50,0,0,1-.85,6.94,48.81,48.81,0,0,0,5.21-.66,1.91,1.91,0,0,1-.12,1.81c-1.77.2-3.55.35-5.36.39-.77,4.55-1.73,9.48-1.73,12s.85,4.47,3.16,4.47c2.85,0,5.7-4.63,6.51-8.63Z" transform="translate(-1.22 -12)"/><path class="cls-1" d="M262.78,32.61c-1.66,4.63-5.4,10.06-12.22,10.06-4.74,0-6.9-3.78-6.9-7.86,0-4.59,3.24-12.34,9.44-12.34,3.7,0,4.59,2.43,4.59,3.9,0,3.62-4.36,6.67-11.29,6.93,0,.43,0,.89,0,1.32,0,3.31,1.46,6.24,5.36,6.24,5.66,0,8.94-5.36,9.79-8.63Zm-7.52-6.4c0-1.89-1.08-2.39-2.12-2.39-3.54,0-5.93,3.86-6.59,8.25C252.72,31.72,255.26,29.26,255.26,26.21Z" transform="translate(-1.22 -12)"/></svg>